<svg width="18" height="18" viewBox="0 0 18 18" fill="none" xmlns="http://www.w3.org/2000/svg">
<path d="M13.4041 5.79689C13.9508 5.79689 14.3941 5.35366 14.3941 4.80689C14.3941 4.26013 13.9508 3.81689 13.4041 3.81689C12.8573 3.81689 12.4141 4.26013 12.4141 4.80689C12.4141 5.35366 12.8573 5.79689 13.4041 5.79689Z" fill="#2C295F"/>
<path d="M9.0002 4.97461C8.1623 4.97461 7.3432 5.22308 6.64651 5.68859C5.94981 6.1541 5.40681 6.81576 5.08616 7.58988C4.76551 8.364 4.68161 9.2158 4.84508 10.0376C5.00854 10.8594 5.41203 11.6143 6.00452 12.2068C6.59701 12.7993 7.35188 13.2028 8.1737 13.3662C8.9955 13.5297 9.8473 13.4458 10.6214 13.1251C11.3956 12.8045 12.0572 12.2615 12.5227 11.5648C12.9882 10.8681 13.2367 10.049 13.2367 9.2111C13.2367 8.0875 12.7904 7.00996 11.9959 6.21546C11.2014 5.42096 10.1238 4.97461 9.0002 4.97461ZM9.0002 11.9611C8.4563 11.9611 7.9246 11.7998 7.47237 11.4977C7.02013 11.1955 6.66766 10.766 6.45952 10.2635C6.25138 9.761 6.19692 9.2081 6.30303 8.6746C6.40914 8.1412 6.67105 7.65117 7.05564 7.26658C7.44024 6.88198 7.93024 6.62007 8.4637 6.51396C8.9971 6.40785 9.5501 6.46231 10.0526 6.67045C10.5551 6.87859 10.9846 7.23107 11.2867 7.6833C11.5889 8.1355 11.7502 8.6672 11.7502 9.2111C11.7502 9.9405 11.4605 10.6399 10.9447 11.1557C10.429 11.6714 9.7295 11.9611 9.0002 11.9611Z" fill="#2C295F"/>
<path d="M9 2.44745C11.2028 2.44745 11.4638 2.45584 12.3337 2.49558C12.8568 2.5018 13.375 2.59789 13.8656 2.77965C14.2214 2.91693 14.5445 3.12716 14.8142 3.39682C15.0838 3.66647 15.2941 3.98958 15.4314 4.34536C15.6131 4.83597 15.7092 5.35416 15.7154 5.87732C15.7551 6.74721 15.7636 7.00819 15.7636 9.211C15.7636 11.4138 15.7552 11.6748 15.7154 12.5447C15.7092 13.0678 15.6131 13.586 15.4314 14.0767C15.2941 14.4324 15.0838 14.7555 14.8142 15.0252C14.5445 15.2948 14.2214 15.5051 13.8656 15.6424C13.375 15.8241 12.8568 15.9202 12.3337 15.9264C11.4639 15.9661 11.203 15.9746 9 15.9746C6.79698 15.9746 6.53614 15.9662 5.66631 15.9264C5.14316 15.9202 4.62496 15.8241 4.13436 15.6424C3.77857 15.5051 3.45547 15.2948 3.18581 15.0252C2.91616 14.7555 2.70593 14.4324 2.56864 14.0767C2.38689 13.586 2.2908 13.0678 2.28457 12.5447C2.2449 11.6748 2.23644 11.4138 2.23644 9.211C2.23644 7.00819 2.24483 6.74721 2.28457 5.87732C2.2908 5.35416 2.38689 4.83597 2.56864 4.34536C2.70592 3.98957 2.91615 3.66645 3.1858 3.39678C3.45546 3.12711 3.77857 2.91687 4.13436 2.77958C4.62496 2.59782 5.14316 2.50173 5.66631 2.49551C6.53621 2.45584 6.79718 2.44738 9 2.44738M9 0.960938C6.75944 0.960938 6.47846 0.970418 5.59852 1.01057C4.91422 1.02431 4.2372 1.15398 3.59625 1.39406C3.04813 1.60603 2.55034 1.93017 2.13479 2.34573C1.71924 2.76128 1.39509 3.25907 1.18313 3.80719C0.943 4.44825 0.81334 5.12539 0.79964 5.80981C0.75949 6.68939 0.75 6.97038 0.75 9.2109C0.75 11.4515 0.75949 11.7325 0.79964 12.6124C0.81334 13.2968 0.94301 13.974 1.18313 14.615C1.39509 15.1632 1.71924 15.6609 2.13479 16.0765C2.55034 16.492 3.04813 16.8162 3.59625 17.0282C4.23731 17.2683 4.91445 17.3979 5.59887 17.4116C6.47846 17.4515 6.75944 17.4609 9 17.4609C11.2406 17.4609 11.5215 17.4515 12.4015 17.4113C13.0859 17.3976 13.763 17.2679 14.4041 17.0278C14.9522 16.8158 15.45 16.4917 15.8656 16.0761C16.2811 15.6606 16.6053 15.1628 16.8172 14.6147C17.0573 13.9736 17.187 13.2965 17.2007 12.6121C17.2405 11.7325 17.25 11.4515 17.25 9.2109C17.25 6.97038 17.2405 6.68939 17.2004 5.80946C17.1866 5.12516 17.057 4.44814 16.8169 3.80719C16.6049 3.25913 16.2807 2.76141 15.8652 2.34592C15.4496 1.93043 14.9518 1.60633 14.4038 1.39441C13.7627 1.15429 13.0855 1.02463 12.4011 1.01092C11.5215 0.970428 11.2406 0.960938 9 0.960938Z" fill="#2C295F"/>
</svg>
